<svg xmlns="http://www.w3.org/2000/svg" viewBox="0 0 800 500" width="100%" height="100%">
<defs>
<linearGradient id="bg-blogfirsttimechinasourcing" x1="0%" y1="0%" x2="100%" y2="100%">
<stop offset="0%" style="stop-color:#0891b2"/><stop offset="100%" style="stop-color:#06b6d4"/>
</linearGradient>
<linearGradient id="ac-blogfirsttimechinasourcing" x1="0%" y1="0%" x2="0%" y2="100%">
<stop offset="0%" style="stop-color:#ffffff" stop-opacity="0.32"/>
<stop offset="100%" style="stop-color:#ffffff" stop-opacity="0.04"/>
</linearGradient>
</defs>
<rect width="800" height="500" fill="url(#bg-blogfirsttimechinasourcing)"/>
<circle cx="740" cy="60" r="75" fill="url(#ac-blogfirsttimechinasourcing)"/>
<circle cx="80" cy="450" r="52" fill="url(#ac-blogfirsttimechinasourcing)"/>
<circle cx="650" cy="405" r="38" fill="url(#ac-blogfirsttimechinasourcing)"/>
<rect x="40" y="40" width="60" height="60" rx="12" fill="url(#ac-blogfirsttimechinasourcing)" transform="rotate(15 70 70)"/>
<circle cx="330" cy="230" r="45" fill="#67e8f9" opacity="0.88"/>
<rect x="310" y="275" width="40" height="50" rx="8" fill="#67e8f9" opacity="0.88"/>
<circle cx="490" cy="190" r="10" fill="#67e8f9" opacity="0.88"/>
<rect x="480" y="200" width="20" height="20" rx="4" fill="#67e8f9" opacity="0.88"/>
<path d="M380,240 Q430,190 480,190" fill="none" stroke="#67e8f9" stroke-width="6" stroke-linecap="round" stroke-linejoin="round" opacity="0.95"/>
<g transform="translate(50,60)" opacity="0.9">
<rect x="0" y="0" width="120" height="32" rx="16" fill="url(#ac-blogfirsttimechinasourcing)"/>
<text x="60" y="22" text-anchor="middle" fill="#ffffff" font-family="system-ui,sans-serif" font-size="15" font-weight="700">YEATRU BLOG</text>
</g>
<g transform="translate(400,450)" opacity="0.42">
<rect x="-310" y="-22" width="620" height="44" rx="22" fill="#000" opacity="0.18"/>
<text x="0" y="9" text-anchor="middle" fill="#ffffff" font-family="system-ui,sans-serif" font-size="22" font-weight="700" letter-spacing="4">First  ·  Time  ·  Guide</text>
</g>
</svg>