<svg xmlns="http://www.w3.org/2000/svg" viewBox="0 0 800 500" width="100%" height="100%">
<defs>
<linearGradient id="bg-blogsmallorderservicefee" x1="0%" y1="0%" x2="100%" y2="100%">
<stop offset="0%" style="stop-color:#a16207"/><stop offset="100%" style="stop-color:#eab308"/>
</linearGradient>
<linearGradient id="ac-blogsmallorderservicefee" x1="0%" y1="0%" x2="0%" y2="100%">
<stop offset="0%" style="stop-color:#ffffff" stop-opacity="0.32"/>
<stop offset="100%" style="stop-color:#ffffff" stop-opacity="0.04"/>
</linearGradient>
</defs>
<rect width="800" height="500" fill="url(#bg-blogsmallorderservicefee)"/>
<circle cx="740" cy="60" r="75" fill="url(#ac-blogsmallorderservicefee)"/>
<circle cx="80" cy="450" r="52" fill="url(#ac-blogsmallorderservicefee)"/>
<circle cx="650" cy="405" r="38" fill="url(#ac-blogsmallorderservicefee)"/>
<rect x="40" y="40" width="60" height="60" rx="12" fill="url(#ac-blogsmallorderservicefee)" transform="rotate(15 70 70)"/>
<rect x="270" y="200" width="50" height="50" rx="5" fill="#fde047" opacity="0.88"/>
<rect x="340" y="210" width="40" height="40" rx="4" fill="#fde047" opacity="0.88"/>
<rect x="400" y="220" width="30" height="30" rx="3" fill="#fde047" opacity="0.88"/>
<rect x="450" y="230" width="20" height="20" rx="2" fill="#fde047" opacity="0.88"/>
<circle cx="500" cy="230" r="28" fill="#fde047" opacity="0.88"/>
<text x="500" y="238" text-anchor="middle" fill="#fde047" font-family="system-ui,sans-serif" font-size="32" font-weight="900">%</text>
<g transform="translate(50,60)" opacity="0.9">
<rect x="0" y="0" width="120" height="32" rx="16" fill="url(#ac-blogsmallorderservicefee)"/>
<text x="60" y="22" text-anchor="middle" fill="#ffffff" font-family="system-ui,sans-serif" font-size="15" font-weight="700">YEATRU BLOG</text>
</g>
<g transform="translate(400,450)" opacity="0.42">
<rect x="-310" y="-22" width="620" height="44" rx="22" fill="#000" opacity="0.18"/>
<text x="0" y="9" text-anchor="middle" fill="#ffffff" font-family="system-ui,sans-serif" font-size="22" font-weight="700" letter-spacing="4">Small  ·  Order  ·  Fee</text>
</g>
</svg>